<svg width="204" height="78" viewBox="0 0 204 78" fill="none" xmlns="http://www.w3.org/2000/svg">
<path fill-rule="evenodd" clip-rule="evenodd" d="M17.5218 20.0627L0.382812 0V36.3448L7.23842 33.3707V17.996L17.5218 30.0437L27.8052 17.996V33.3707L34.6609 36.3448V0L17.5218 20.0627ZM7.54087 40.5791L0.685269 43.5533V77.2768C8.49865 77.2768 16.2616 77.2768 24.075 77.2768V68.4553L21.0505 70.4212H7.54087V40.5791ZM85.7251 77.3272V60.5915H76.9035L78.8694 63.616V68.2032C77.0547 69.8667 74.5847 70.8749 71.9634 70.8749C66.2168 70.8749 61.5792 66.2373 61.5792 60.4907C61.5792 54.744 66.2168 50.1064 71.9634 50.1064C75.2904 50.1064 78.2141 51.6691 80.1297 54.0887L85.2714 50.2072C82.1964 46.2249 77.3572 43.6541 71.9634 43.6541C62.6882 43.6541 55.1269 51.165 55.1269 60.4907C55.1269 69.7659 62.6378 77.3272 71.9634 77.3272C75.24 77.3272 78.2645 76.4199 80.8354 74.8068L85.7251 77.3272ZM187.753 49.6527C191.634 48.6446 198.389 50.3081 202.926 53.4334V43.6541L199.901 45.62C192.995 43.6037 187.652 43.2004 184.325 45.2672C181.25 47.1323 179.032 49.0982 179.536 53.5342C179.939 57.0628 180.443 58.928 185.736 61.2972C188.458 62.507 191.281 63.4648 194.003 64.5738C199.851 66.6405 198.49 70.7741 192.541 70.9757C187.601 71.1773 183.115 69.7155 178.931 67.4471V77.2264L181.956 75.2605C186.492 76.1174 190.828 77.5289 194.759 76.8735C198.843 76.2182 203.732 73.6978 203.984 68.4553C204.287 62.6582 200.153 60.0874 194.659 58.2727C192.037 57.4157 189.265 56.5084 187.047 54.8953C184.779 53.2822 185.585 50.2072 187.753 49.6527ZM87.2877 43.6541L89.2537 46.6786V74.2523L87.2877 77.2768H114.307V69.0098L111.282 70.9757H96.1597V63.616H109.518V57.3149H96.1597V49.9552H111.282L114.307 51.9211V43.6541C105.284 43.6541 96.2605 43.6541 87.2877 43.6541ZM26.0913 43.6541L28.0573 46.6786V74.2523L26.0913 77.2768H53.1105V69.0098L50.086 70.9757H34.9633V63.616H48.3217V57.3149H34.9633V49.9552H50.086L53.1105 51.9211V43.6541C44.0873 43.6541 35.1145 43.6541 26.0913 43.6541ZM123.431 5.89784L125.397 2.87331H114.609L116.575 5.89784V37.0505C124.389 37.0505 132.152 37.0505 139.965 37.0505V28.229L136.94 30.1949H123.431V5.89784ZM142.032 2.87331L143.998 5.89784V33.9756L142.032 37.0001H169.051V28.229L166.026 30.1949H150.904V23.3897H164.262V16.5341H150.904V9.6785H166.026L169.051 11.6445V2.87331C160.028 2.87331 151.005 2.87331 142.032 2.87331ZM143.393 77.3272V46.6786L145.258 43.7045C141.83 43.7045 138.453 43.7045 135.025 43.7045L136.89 46.6786V61.146L118.138 43.7045V74.3531L116.273 77.3272C119.701 77.3272 123.078 77.3272 126.506 77.3272L124.641 74.3531V59.8857L143.393 77.3272ZM146.77 43.6541L148.736 46.6282V74.2523L146.77 77.2264C151.408 77.2264 156.045 77.2264 160.683 77.2264C167.236 77.2264 175.453 70.4716 175.453 63.1623V56.962C175.453 49.6527 167.69 43.6541 161.137 43.6541C156.348 43.6541 151.559 43.6541 146.77 43.6541ZM155.289 50.1568H160.633C165.119 50.1568 168.799 53.8367 168.799 58.3231V62.1541C168.799 66.6405 164.665 70.7741 160.179 70.7741H155.289V50.1568ZM111.434 5.89784L113.4 2.87331C109.82 2.87331 106.191 2.87331 102.612 2.87331L104.578 5.89784V33.9756L102.612 37.0001C106.191 37.0001 109.82 37.0001 113.4 37.0001L111.434 33.9756V5.89784ZM73.5765 37.0505L75.5424 34.026V5.89784L73.5765 2.87331H88.8504C94.6474 2.87331 99.3354 7.00683 99.3354 12.0477C99.3354 14.4169 98.6297 16.5845 97.2687 18.1976C99.7891 20.1635 101.15 23.1377 101.15 26.4647C101.15 32.3121 95.9581 37.0505 89.5561 37.0505H73.5765ZM82.3476 31.6568H89.8586C92.3286 31.6568 94.345 29.2876 94.345 26.4143C94.345 23.5409 92.3286 21.1717 89.8586 21.1717H82.3476V31.6568ZM82.3476 15.8284H88.7496C90.8668 15.8284 92.5807 14.1145 92.5807 11.9973C92.5807 9.88014 90.8668 8.16624 88.7496 8.16624H82.3476V15.8284ZM55.0765 2.87331C64.5029 2.87331 72.1651 10.5355 72.1651 19.9619C72.1651 29.3884 64.5029 37.0505 55.0765 37.0505C45.65 37.0505 37.9878 29.3884 37.9878 19.9619C37.9878 10.485 45.65 2.87331 55.0765 2.87331ZM51.0437 19.9619L55.0765 24.8516L59.1092 19.9619L55.0765 15.0723L51.0437 19.9619ZM55.0765 9.6281C49.3803 9.6281 44.7426 14.2657 44.7426 19.9619C44.7426 25.6581 49.3803 30.2957 55.0765 30.2957C60.7727 30.2957 65.4103 25.6581 65.4103 19.9619C65.4103 14.2153 60.8231 9.6281 55.0765 9.6281Z" fill="white"/>
</svg>
