<svg width="24" height="23" viewBox="0 0 24 23" fill="none" xmlns="http://www.w3.org/2000/svg">
<g clip-path="url(#clip0)">
<path d="M23.1548 11.7588C23.1548 11.0017 23.0877 10.2829 22.9727 9.58334H12.1436V13.9054H18.344C18.0661 15.3238 17.2515 16.5217 16.044 17.3363V20.2113H19.7431C21.909 18.2083 23.1548 15.2567 23.1548 11.7588Z" fill="#999999"/>
<path d="M12.1436 23C15.2486 23 17.8457 21.965 19.7432 20.2112L16.0441 17.3362C15.0091 18.0262 13.6961 18.4479 12.1436 18.4479C9.14405 18.4479 6.60447 16.4258 5.69405 13.6946H1.87988V16.6558C3.7678 20.4125 7.64905 23 12.1436 23Z" fill="#999999"/>
<path d="M5.69397 13.6946C5.45439 13.0046 5.3298 12.2667 5.3298 11.5C5.3298 10.7333 5.46397 9.99543 5.69397 9.30543V6.34418H1.8798C1.09397 7.89668 0.643555 9.64084 0.643555 11.5C0.643555 13.3592 1.09397 15.1033 1.8798 16.6558L5.69397 13.6946Z" fill="#999999"/>
<path d="M12.1436 4.55208C13.8399 4.55208 15.354 5.13667 16.552 6.27709L19.8295 2.99958C17.8457 1.14042 15.2486 0 12.1436 0C7.64905 0 3.7678 2.5875 1.87988 6.34417L5.69405 9.30542C6.60447 6.57417 9.14405 4.55208 12.1436 4.55208Z" fill="#999999"/>
</g>
<defs>
<clipPath id="clip0">
<rect width="23" height="23" fill="white" transform="translate(0.399414)"/>
</clipPath>
</defs>
</svg>
