<svg width="168" height="13" viewBox="0 0 168 13" fill="none" xmlns="http://www.w3.org/2000/svg">
<path fill-rule="evenodd" clip-rule="evenodd" d="M0.68457 0.872167H5.62464C6.58241 0.872167 7.33854 0.922582 7.79222 0.972991C8.29631 1.0234 8.69958 1.17462 9.10285 1.42667C9.50612 1.67871 9.80857 1.98117 10.0606 2.33403C10.3127 2.7373 10.4639 3.14057 10.4639 3.59425C10.4639 4.09834 10.3127 4.60243 10.0102 5.0057C9.70776 5.45938 9.25408 5.76183 8.74999 5.96347C9.50612 6.1651 10.0606 6.46756 10.4639 6.97164C10.8672 7.42532 11.0688 7.97982 11.0688 8.63514C11.0688 9.13923 10.9176 9.64331 10.6655 10.097C10.4135 10.5507 10.0606 10.9539 9.60694 11.206C9.15326 11.5084 8.59876 11.6597 7.94345 11.7101C7.54017 11.7605 6.532 11.7605 4.91891 11.7605H0.68457V0.872167ZM161.287 7.62696V5.91305H167.135C167.135 7.37491 166.883 8.38309 166.479 9.34086C166.127 10.097 165.32 11.0044 164.413 11.3572C163.455 11.7101 162.396 11.8613 161.388 11.8613C160.077 11.8613 158.968 11.6093 158.011 11.1556C157.053 10.6515 156.347 9.99618 155.843 9.08882C155.339 8.18146 155.137 7.22369 155.137 6.1651C155.137 5.0057 155.389 3.99752 155.944 3.09016C156.498 2.1828 157.255 1.52748 158.313 1.0234C159.12 0.670533 160.077 0.468903 161.287 0.468903C162.8 0.468903 164.009 0.771354 164.866 1.32585C165.723 1.88035 166.429 2.98934 166.53 4.14874L164.06 4.09834C163.657 2.83812 162.497 2.23321 161.287 2.33403C159.422 2.48526 158.918 4.70325 158.918 6.01388C158.918 7.42533 159.725 9.18963 161.237 9.18963C163.253 9.18963 163.556 8.28228 163.556 7.62696H161.287ZM64.4518 7.82859V6.1147H70.2488C70.2488 7.57655 69.9968 8.58473 69.5935 9.5425C69.2406 10.2986 68.4341 11.206 67.5267 11.5589C66.569 11.9117 65.5104 12.0629 64.5022 12.0629C63.1916 12.0629 62.0826 11.8109 61.1248 11.3572C60.1671 10.8531 59.4613 10.1978 58.9572 9.29046C58.4531 8.3831 58.2515 7.42533 58.2515 6.36674C58.2515 5.20734 58.5036 4.19915 59.0581 3.2918C59.6126 2.38444 60.3687 1.72912 61.4273 1.22504C62.2338 0.872174 63.1916 0.670535 64.4014 0.670535C65.9137 0.670535 67.1235 0.972987 67.9804 1.52748C68.8374 2.08198 69.5431 3.19098 69.6439 4.35038L67.1739 4.29997C66.7706 3.03975 65.6112 2.43484 64.4014 2.53566C62.5363 2.68689 62.0322 4.90488 62.0322 6.21551C62.0322 7.62696 62.8387 9.39127 64.351 9.39127C66.3673 9.39127 66.6698 8.48391 66.6698 7.82859H64.4518ZM136.889 11.8613V0.872167H139.309L144.4 8.23187V0.872167H146.719V11.8613H144.199L139.208 4.65283V11.8613H136.889ZM40.0539 11.8613V0.872167H42.4735L47.5648 8.23187V0.872167H49.8836V11.8613H47.3632L42.3727 4.65283V11.8613H40.0539ZM127.816 11.8613H125.396L124.438 9.34086H119.952L119.045 11.8613H116.625L120.96 0.872167H123.38L127.816 11.8613ZM123.682 7.47573L122.12 3.39261L120.607 7.47573H123.682ZM30.9803 11.8613H28.5103L27.5525 9.34086H23.0661L22.1587 11.8613H19.7391L24.0743 0.872167H26.4939L30.9803 11.8613ZM26.7964 7.47573L25.2337 3.39261L23.7214 7.47573H26.7964ZM97.52 0.872167H102.46C103.418 0.872167 104.174 0.922582 104.628 0.972991C105.132 1.0234 105.535 1.17462 105.938 1.42667C106.342 1.67871 106.644 1.98117 106.896 2.33403C107.148 2.7373 107.299 3.14057 107.299 3.59425C107.299 4.09834 107.148 4.60243 106.846 5.0057C106.543 5.45938 106.09 5.76183 105.585 5.96347C106.342 6.1651 106.896 6.46756 107.299 6.97164C107.703 7.42532 107.904 7.97982 107.904 8.63514C107.904 9.13923 107.753 9.64331 107.501 10.097C107.249 10.5507 106.896 10.9539 106.442 11.206C105.989 11.5084 105.434 11.6597 104.779 11.7101C104.376 11.7605 103.367 11.7605 101.754 11.7605H97.52V0.872167ZM100.04 2.68689V5.20733H101.654C102.611 5.20733 103.216 5.20733 103.468 5.15692C103.872 5.10651 104.224 5.0057 104.476 4.75366C104.729 4.55202 104.829 4.24956 104.829 3.8967C104.829 3.54384 104.728 3.2918 104.527 3.09016C104.325 2.88853 104.023 2.7373 103.569 2.68689C103.317 2.63648 102.611 2.63648 101.452 2.63648H100.04V2.68689ZM100.04 7.07246V9.99618H102.359C103.267 9.99618 103.821 9.99617 104.073 9.94577C104.426 9.89536 104.729 9.74413 104.981 9.49209C105.233 9.24004 105.333 8.93759 105.333 8.53432C105.333 8.18146 105.233 7.92941 105.081 7.67737C104.88 7.42532 104.628 7.27409 104.325 7.17328C103.972 7.07246 103.267 7.02206 102.107 7.02206H100.04V7.07246ZM3.20501 2.68689V5.20733H4.8181C5.77587 5.20733 6.38078 5.20733 6.63282 5.15692C7.03609 5.10651 7.38895 5.0057 7.641 4.75366C7.89304 4.55202 7.99386 4.24956 7.99386 3.8967C7.99386 3.54384 7.89304 3.2918 7.6914 3.09016C7.48977 2.88853 7.18732 2.7373 6.73364 2.68689C6.48159 2.63648 5.77587 2.63648 4.61646 2.63648H3.20501V2.68689ZM3.20501 7.07246V9.99618H5.52382C6.43118 9.99618 6.98568 9.99617 7.23772 9.94577C7.59059 9.89536 7.89304 9.74413 8.14509 9.49209C8.39713 9.24004 8.49795 8.93759 8.49795 8.53432C8.49795 8.18146 8.39713 7.92941 8.2459 7.67737C8.04427 7.42532 7.79222 7.27409 7.48977 7.17328C7.13691 7.07246 6.43118 7.02206 5.27177 7.02206H3.20501V7.07246Z" fill="white"/>
</svg>
