<svg width="91" height="91" viewBox="0 0 91 91" fill="none" xmlns="http://www.w3.org/2000/svg">
<path fill-rule="evenodd" clip-rule="evenodd" d="M10.1826 0.57901H43.15H48.1405C56.5588 0.57901 58.5751 2.59537 62.1541 6.12399L84.1324 27.9006C87.9131 31.6309 90.2823 34.0001 90.2823 42.6704V47.6609V80.0234L75.5629 65.4048V30.9756L62.507 18.0709L45.1159 35.3107L10.1826 0.57901ZM82.0152 90.8613L62.0533 71.0506V37.4279L45.1159 54.2645L28.1786 37.4279V73.8231L14.7194 60.4648V24.0695L0 9.45097V43.7794V48.7699C0 57.4402 2.36922 59.759 6.14988 63.5397L28.1282 85.3163C31.7072 88.8449 33.7235 90.8613 42.1418 90.8613H47.1323H82.0152ZM20.7685 90.8613L0 70.2441V90.8613H20.7685ZM69.4634 0.57901L90.2319 21.1962V0.57901H69.4634Z" fill="white"/>
</svg>
